tugOfWar_states
version=1
nRows=33
nColumns=7
inDegrees=yes

# SIMM Motion File Header:
name tugOfWar_states
datacolumns 7
datarows 33
otherdata 1
range 0.62179351 0.70012185
endheader
time	/jointset/ground_block/block_tz/value	/jointset/ground_block/block_tz/speed	/forceset/muscle1/activation	/forceset/muscle1/fiber_length	/forceset/muscle2/activation	/forceset/muscle2/fiber_length
      0.62179351	      0.01417423	     -0.05446683	     -0.02058588	      0.11303103	     -0.03860257	      0.08492667
      0.62424128	      0.01404018	     -0.05505111	     -0.02083800	      0.11290803	     -0.03885469	      0.08507533
      0.62668904	      0.01390473	     -0.05563024	     -0.02109012	      0.11278360	     -0.03910681	      0.08519469
      0.62913680	      0.01376790	     -0.05615338	     -0.02134224	      0.11265782	     -0.03935893	      0.08534465
      0.63158456	      0.01362983	     -0.05667004	     -0.02159436	      0.11253074	     -0.03961105	      0.08546728
      0.63403232	      0.01349053	     -0.05713152	     -0.02184648	      0.11240244	     -0.03986317	      0.08562109
      0.63648008	      0.01335014	     -0.05758937	     -0.02209860	      0.11227299	     -0.04011529	      0.08574528
      0.63892784	      0.01320867	     -0.05799135	     -0.02235072	      0.11214246	     -0.04036741	      0.08590089
      0.64137560	      0.01306624	     -0.05838981	     -0.02260284	      0.11201090	     -0.04061953	      0.08602718
      0.64382336	      0.01292288	     -0.05873287	     -0.02285495	      0.11187840	     -0.04087165	      0.08618555
      0.64627112	      0.01277871	     -0.05907445	     -0.02310707	      0.11174501	     -0.04112377	      0.08631311
      0.64871888	      0.01263375	     -0.05936052	     -0.02335919	      0.11161080	     -0.04137588	      0.08647292
      0.65116664	      0.01248811	     -0.05964553	     -0.02361131	      0.11147583	     -0.04162800	      0.08660194
      0.65361440	      0.01234182	     -0.05987558	     -0.02386343	      0.11134017	     -0.04188012	      0.08676371
      0.65606216	      0.01219499	     -0.06010629	     -0.02411555	      0.11120387	     -0.04213224	      0.08689362
      0.65850992	      0.01204763	     -0.06028226	     -0.02436767	      0.11106701	     -0.04238436	      0.08705631
      0.66095768	      0.01189987	     -0.06045938	     -0.02461979	      0.11092963	     -0.04263648	      0.08718718
      0.66340544	      0.01175171	     -0.06058249	     -0.02487191	      0.11079180	     -0.04288860	      0.08735114
      0.66585320	      0.01160328	     -0.06070822	     -0.02512403	      0.11065358	     -0.04314072	      0.08748249
      0.66830096	      0.01145458	     -0.06078042	     -0.02537615	      0.11051503	     -0.04339284	      0.08764685
      0.67074872	      0.01130573	     -0.06085574	     -0.02562827	      0.11037620	     -0.04364496	      0.08777869
      0.67319648	      0.01115672	     -0.06087842	     -0.02588039	      0.11023716	     -0.04389708	      0.08794370
      0.67564424	      0.01100769	     -0.06090549	     -0.02613251	      0.11009794	     -0.04414920	      0.08807562
      0.67809200	      0.01085862	     -0.06088063	     -0.02638463	      0.10995862	     -0.04440132	      0.08824052
      0.68053977	      0.01070964	     -0.06086063	     -0.02663674	      0.10981923	     -0.04465344	      0.08837253
      0.68298753	      0.01056074	     -0.06078973	     -0.02688886	      0.10967985	     -0.04490555	      0.08853747
      0.68543529	      0.01041203	     -0.06072478	     -0.02714098	      0.10954051	     -0.04515767	      0.08866921
      0.68788305	      0.01026352	     -0.06060983	     -0.02739310	      0.10940127	     -0.04540979	      0.08883357
      0.69033081	      0.01011531	     -0.06050126	     -0.02764522	      0.10926217	     -0.04566191	      0.08896499
      0.69277857	      0.00996740	     -0.06034388	     -0.02789734	      0.10912327	     -0.04591403	      0.08912885
      0.69522633	      0.00981989	     -0.06019373	     -0.02814946	      0.10898462	     -0.04616615	      0.08925966
      0.69767409	      0.00967278	     -0.05999585	     -0.02840158	      0.10884626	     -0.04641827	      0.08942250
      0.70012185	      0.00952617	     -0.05980562	     -0.02865370	      0.10870822	     -0.04667039	      0.08955265
